<svg xmlns="http://www.w3.org/2000/svg" viewBox="0 0 128 128"><path fill="#F7A80D" d="M38.089 77.466l-11.4 4.896 10.559 4.514 12.241-4.514-11.4-4.896zm-4.968 2.073l-.861.37 7.293 3.122 3.984-1.47-3.891-1.666-6.525 2.804-1.157-.496 6.389-2.742-3.85-1.649-1.382.727zm18.432 9.03l-13.67 5.044v12.334l13.67-5.802V88.57zm-28.9 5.044l13.671 5.044v12.334l-13.67-5.802V93.613zm14.522-24.32l11.4 4.896-10.559 4.514-12.241-4.514 11.4-4.896zm4.968 2.073l.861.37-7.293 3.122-3.984-1.47 3.891-1.666 6.525 2.804 1.157-.496-6.389-2.742 3.85-1.649 1.382.727z"/><path fill="#F7A80D" d="M75.015 77.466l-11.4 4.896 10.559 4.514 12.241-4.514-11.4-4.896zm-4.968 2.073l-.861.37 7.293 3.122 3.984-1.47-3.891-1.666-6.525 2.804-1.157-.496 6.389-2.742-3.85-1.649-1.382.727zm18.432 9.03l-13.67 5.044v12.334l13.67-5.802V88.57zm-28.9 5.044l13.671 5.044v12.334l-13.67-5.802V93.613zm14.522-24.32l11.4 4.896-10.559 4.514-12.241-4.514 11.4-4.896zm4.968 2.073l.861.37-7.293 3.122-3.984-1.47 3.891-1.666 6.525 2.804 1.157-.496-6.389-2.742 3.85-1.649 1.382.727z"/><path fill="#F7A80D" d="M111.94 77.466l-11.4 4.896 10.559 4.514 12.241-4.514-11.4-4.896zm-4.968 2.073l-.861.37 7.293 3.122 3.984-1.47-3.891-1.666-6.525 2.804-1.157-.496 6.389-2.742-3.85-1.649-1.382.727zm18.432 9.03l-13.67 5.044v12.334l13.67-5.802V88.57zm-28.9 5.044l13.671 5.044v12.334l-13.67-5.802V93.613zm14.522-24.32l11.4 4.896-10.559 4.514-12.241-4.514 11.4-4.896zm4.968 2.073l.861.37-7.293 3.122-3.984-1.47 3.891-1.666 6.525 2.804 1.157-.496-6.389-2.742 3.85-1.649 1.382.727z"/><path fill="#F7A80D" d="M56.553 58.466l-11.4 4.896 10.559 4.514 12.241-4.514-11.4-4.896zm-4.968 2.073l-.861.37 7.293 3.122 3.984-1.47-3.891-1.666-6.525 2.804-1.157-.496 6.389-2.742-3.85-1.649-1.382.727zm18.432 9.03l-13.67 5.044v12.334l13.67-5.802V69.57zm-28.9 5.044l13.671 5.044v12.334l-13.67-5.802V74.613zm14.522-24.32l11.4 4.896-10.559 4.514-12.241-4.514 11.4-4.896zm4.968 2.073l.861.37-7.293 3.122-3.984-1.47 3.891-1.666 6.525 2.804 1.157-.496 6.389-2.742-3.85-1.649-1.382.727z"/><path fill="#F7A80D" d="M93.477 58.466l-11.4 4.896 10.559 4.514 12.241-4.514-11.4-4.896zm-4.968 2.073l-.861.37 7.293 3.122 3.984-1.47-3.891-1.666-6.525 2.804-1.157-.496 6.389-2.742 3.85-1.649 1.382.727zm18.432 9.03l-13.67 5.044v12.334l13.67-5.802V69.57zm-28.9 5.044l13.671 5.044v12.334l-13.67-5.802V74.613zm14.522-24.32l11.4 4.896-10.559 4.514-12.241-4.514 11.4-4.896zm4.968 2.073l.861.37-7.293 3.122-3.984-1.47 3.891-1.666 6.525 2.804 1.157-.496-6.389-2.742 3.85-1.649 1.382.727z"/><path fill="#F7A80D" d="M75.015 39.466l-11.4 4.896 10.559 4.514 12.241-4.514-11.4-4.896zm-4.968 2.073l-.861.37 7.293 3.122 3.984-1.47-3.891-1.666-6.525 2.804-1.157-.496-6.389-2.742 3.85-1.649 1.382.727zm18.432 9.03l-13.67 5.044v12.334l13.67-5.802V50.57zm-28.9 5.044l13.671 5.044v12.334l-13.67-5.802V55.613zm14.522-24.32l11.4 4.896-10.559 4.514-12.241-4.514 11.4-4.896zm4.968 2.073l.861.37-7.293 3.122-3.984-1.47-3.891-1.666 6.525 2.804 1.157-.496-6.389-2.742 3.85-1.649 1.382.727z"/></svg>
