<svg xmlns="http://www.w3.org/2000/svg" viewBox="0 0 128 128"><path fill-rule="evenodd" clip-rule="evenodd" fill="#3A4D54" d="M73.8 50.8h11.3v11.5h5.7c2.6 0 5.3-.5 7.8-1.3 1.2-.4 2.6-1 3.8-1.7-1.6-2.1-2.4-4.7-2.6-7.3-.3-3.5.4-8.1 2.8-10.8l1.2-1.4 1.4 1.1c3.6 2.8 6.6 6.7 7.1 11.2 4.3-1.3 9.3-1 13.1 1.2l1.5.9-.8 1.6c-3.2 6.2-9.9 8.2-16.4 7.8-9.8 24.3-31 35.8-56.8 35.8-13.3 0-25.5-5-32.5-16.8l-.1-.2-2.7-5.4c-1.9-4.4-2.8-9.3-3.1-14.2h68.4zm-34.4 0h11.3v11.5H39.4V50.8zm-15.8 0h11.3v11.5H23.6V50.8zm31.6-15.7h11.3v11.5H55.2V35.1zM39.4 35.1h11.3v11.5H39.4V35.1zm-15.8 0h11.3v11.5H23.6V35.1zm-15.8 15.7h11.3v11.5H7.8V50.8zm15.8 0h11.3v11.5H23.6V50.8zm31.6-31.5h11.3v11.5H55.2V19.3z"/></svg>
