<svg xmlns="http://www.w3.org/2000/svg" viewBox="0 0 128 128"><path fill="#0ACF83" d="M45.5 127.1c10.5 0 19-8.5 19-19V89.1h-19c-10.5 0-19 8.5-19 19s8.5 19 19 19z"/><path fill="#A259FF" d="M26.5 89.1c0-10.5 8.5-19 19-19h19v38h-19c-10.5 0-19-8.5-19-19z"/><path fill="#F24E1E" d="M26.5 51.1c0-10.5 8.5-19 19-19h19v38h-19c-10.5 0-19-8.5-19-19z"/><path fill="#FF7262" d="M26.5 13.1c0-10.5 8.5-19 19-19h19v38h-19c-10.5 0-19-8.5-19-19z"/><path fill="#1ABCFE" d="M64.5 13.1c0-10.5 8.5-19 19-19s19 8.5 19 19-8.5 19-19 19h-19V13.1z"/><path fill="#1ABCFE" d="M64.5 51.1c0-10.5 8.5-19 19-19s19 8.5 19 19-8.5 19-19 19-19-8.5-19-19z"/></svg>
