<svg xmlns="http://www.w3.org/2000/svg" viewBox="0 0 128 128"><path fill="#00ACD7" d="M18.8 69.3s-.6-.4.4-.5c1-.2 1.7-.2 1.7-.2s.9-.1 1.4.6c-2 1.2-2.4.6-3.5.1zm-2.8-2s-.5-.4.3-.6c.8-.2 2.2-.1 2.2-.1s.6 0 1 .5c-1.8.9-2.4.6-3.5.2zm5.5-3.4s.3.8-.5 1.2c-7.7 3.5-3.4-3.9 1-1.7-.3.1-.5.3-.5.5zM64 5.7C30.8 5.7 3.7 20 3.7 37.8c0 8.6 5.5 16.4 14.6 22.3-1.6 5-5.7 14-6.3 15.1-1 1.8.5 1.8 1.7 1.3 1.1-.5 14.4-9.7 17.2-11.5 10 3.5 21.5 5.5 33.8 5.5 32.2 0 58.3-14.3 58.3-32.1S96.2 5.7 64 5.7z"/><path fill="#fff" d="M102.3 36.2c-.2-1.9-1-3.5-2.3-4.8-1.3-1.3-3-2.2-4.9-2.5-.5-.1-3.2-.1-3.9-.1-4.4.2-7.8 1.8-10.3 4.8-2 2.5-3.1 5.5-3.1 8.9 0 .6.1 2.7.3 3.5.6 2.4 1.7 4.3 3.4 5.9 1.7 1.6 3.7 2.5 6.1 2.8.5.1 3.2.1 3.9.1 3.3-.2 6.1-1.2 8.4-3.1l.2-.2-.7-1.4-.7-1.4-.3.2c-2.1 1.7-4.5 2.5-7.3 2.5h-.4c-3.3-.2-5.8-1.7-7.4-4.4l-.1-.2h17.7l.1-.7c.2-1.4.2-2.9.1-4.2-.3-2-.5-3.7-.7-5.7zm-17.4 3.5c.4-1.7 1.2-3 2.4-4.1 1.2-1.1 2.8-1.7 4.5-1.7h.4c1.8.1 3.3.7 4.4 1.9 1 1.1 1.5 2.4 1.6 4h-13.3z"/><path fill="#fff" d="M67.2 37.5c-1.9-2.6-4.7-4.3-8.1-4.8-.6-.1-3.3-.1-4.2 0-4.1.5-7.2 2.5-9.3 5.8-1.6 2.5-2.2 5.3-2 8.4.2 3.3 1.4 6 3.6 8.2 2.2 2.2 5 3.4 8.3 3.5.4 0 2.5 0 3.5-.1 3.3-.5 6-2 8-4.6l.1-.2-1.4-1.3-1.4-1.3-.2.3c-2.2 2.8-5.1 4.2-8.7 4.1-3.3-.1-5.7-1.4-7.4-3.8-1.3-1.9-1.8-4-1.6-6.4.3-3 1.5-5.5 3.6-7.2 1.6-1.3 3.5-2 5.6-2.1h.4c3.1.1 5.6 1.4 7.5 3.7l.2.3 1.4-1.3 1.4-1.3-.2-.3c-.3-.2-.5-.5-.7-.7z"/><path fill="#fff" d="M39.4 29.6h-3.7v3.3h-2.6v2.7h2.6v13.9c0 2.2.1 3.7.4 4.6.3 1 .9 1.7 1.7 2.2.8.5 2 .7 3.5.7 1.2 0 2.4-.2 3.6-.5l.1-2.7c-.8.2-1.6.3-2.3.3-.9 0-1.5-.2-1.8-.7-.3-.4-.4-1.5-.4-3.2V35.6h4.5v-2.7h-4.5V29h-1.1v.6z"/></svg>
