<svg xmlns="http://www.w3.org/2000/svg" viewBox="0 0 128 128"><path fill="#E535AB" d="M18.9 81.2L64 107.4l45.1-26.2V55L64 28.8 18.9 55v26.2zm2.1-24.3l43-24.9 43 24.9v22.5l-43 24.9-43-24.9V56.9z"/><circle fill="#E535AB" cx="64" cy="28" r="6"/><circle fill="#E535AB" cx="64" cy="108" r="6"/><circle fill="#E535AB" cx="18" cy="55" r="6"/><circle fill="#E535AB" cx="110" cy="55" r="6"/><circle fill="#E535AB" cx="18" cy="81" r="6"/><circle fill="#E535AB" cx="110" cy="81" r="6"/><path fill="#E535AB" d="M22.5 78.8l38-65.8 3.5 2-38 65.8zm41.5 2l38-65.8 3.5 2-38 65.8zM18 78h92v4H18zm0-20h92v4H18z"/></svg>
