<svg xmlns="http://www.w3.org/2000/svg" viewBox="0 0 128 128"><path fill="#0074BD" d="M47.6 98.6s-3.3 1.9 2.3 2.6c6.8.8 10.3.7 17.8-.8 0 0 2 1.2 4.7 2.3-16.8 7.2-38.1-.4-24.8-4.1zm-2.1-9.3s-3.7 2.7 1.9 3.3c7.3.8 13 .8 22.9-1.1 0 0 1.4 1.4 3.5 2.1-20.3 5.9-42.9.5-28.3-4.3z"/><path fill="#EA2D2E" d="M69.1 61.2c4.1 4.7-1.1 9-1.1 9s10.4-5.4 5.7-12.1c-4.5-6.3-7.9-9.4 10.6-20.2 0 0-29.1 7.3-15.2 23.3z"/><path fill="#0074BD" d="M102.4 108.3s2.4 2-2.7 3.5c-9.6 2.9-40.2 3.8-48.7.1-3-1.3 2.7-3.1 4.5-3.5 1.9-.4 3-.3 3-.3-3.4-2.4-22.2 4.7-9.5 6.7 34.5 5.6 62.9-2.5 53.4-6.5zm-55.8-40s-15.7 3.7-5.6 5.1c4.3.6 12.8.5 20.8-.2 6.5-.6 13.1-1.9 13.1-1.9s-2.3 1-4 2.1c-16 4.2-46.8 2.2-37.9-2.1 7.5-3.6 13.6-3 13.6-3zm28.3 15.8c16.2-8.4 8.7-16.5 3.5-15.4-1.3.3-1.9.5-1.9.5s.5-.8 1.4-1.1c10.5-3.7 18.5 10.8-3.3 16.6 0 0 .2-.2.3-.6z"/><path fill="#EA2D2E" d="M83.3 4s9 9-8.5 22.8c-14 11.1-3.2 17.4 0 24.6-8.2-7.4-14.2-13.9-10.2-20C71.8 21.1 87 16.3 83.3 4z"/><path fill="#0074BD" d="M49.4 123.7c15.6 1 39.5-.6 40.1-8 0 0-1.1 2.8-12.9 5-13.3 2.5-29.7 2.2-39.4.6 0 0 2 1.6 12.2 2.4z"/></svg>
