<svg xmlns="http://www.w3.org/2000/svg" viewBox="0 0 128 128"><path fill="#326CE5" d="M64 1.5c-2.6 0-5.1.8-7.3 2.2L14.9 29.8c-4.3 2.8-7 7.5-7 12.6v52.1c0 5.1 2.6 9.8 7 12.6l41.8 26.1c2.2 1.4 4.7 2.2 7.3 2.2s5.1-.8 7.3-2.2l41.8-26.1c4.3-2.8 7-7.5 7-12.6V42.4c0-5.1-2.6-9.8-7-12.6L71.3 3.7C69.1 2.3 66.6 1.5 64 1.5z"/><path fill="#fff" d="M64 12c-.9 0-1.7.3-2.5.7L21.2 37.3c-1.5.9-2.4 2.6-2.4 4.3v49.8c0 1.7.9 3.4 2.4 4.3l40.3 24.6c.8.5 1.6.7 2.5.7s1.7-.3 2.5-.7l40.3-24.6c1.5-.9 2.4-2.6 2.4-4.3V41.6c0-1.7-.9-3.4-2.4-4.3L66.5 12.7c-.8-.5-1.6-.7-2.5-.7z"/><path fill="#326CE5" d="M64 24.2l-2.2 1.3-6.3 37.8-4.3 2.6-.1-5 2.2-7.1-3.7 5.5-3.3-2-.8-7.4-2.7 6.1-3.3-2 5.9-18.3-5.7 18.4-2.1 3.5 1 9.2-4.7 2.9-9.3-14.6 7.7 15.5-2.3 3.9-2.6 1.6 8.5 4.9 5.8 3.5.1.2-8.4 4.8-2.6 1.7-2.3 3.9 7.7 15.5-9.3-14.6-4.7 2.9 1 9.2-2.1 3.5-5.7 18.4 5.9-18.3-3.3-2-2.7 6.1-.8-7.4-3.3-2-3.7 5.5 2.2-7.1-.1-5-4.3 2.6-6.3 37.8L64 103l2.2-1.3 6.3-37.8 4.3-2.6.1 5-2.2 7.1 3.7-5.5 3.3 2 .8 7.4 2.7-6.1 3.3 2-5.9 18.3 5.7-18.4 2.1-3.5-1-9.2 4.7-2.9 9.3 14.6-7.7-15.5 2.3-3.9 2.6-1.6-8.5-4.9-5.8-3.5-.1-.2 8.4-4.8 2.6-1.7 2.3-3.9-7.7-15.5 9.3 14.6 4.7-2.9-1-9.2 2.1-3.5 5.7-18.4-5.9 18.3 3.3 2 2.7-6.1.8 7.4 3.3 2 3.7-5.5-2.2 7.1.1 5 4.3-2.6 6.3-37.8L64 24.2z"/></svg>
