<svg xmlns="http://www.w3.org/2000/svg" viewBox="0 0 128 128"><path fill="#333" d="M64 3.2C42.5 3.2 25.3 20.4 25.3 42v10.7c0 10.3 3.4 20.2 9.7 28.3l2.7 3.5c3.5 4.5 5.4 10 5.4 15.7v3.7c0 6.1 5 11.1 11.1 11.1h19.6c6.1 0 11.1-5 11.1-11.1v-3.7c0-5.7 1.9-11.2 5.4-15.7l2.7-3.5c6.3-8.1 9.7-18 9.7-28.3V42c0-21.6-17.2-38.8-38.7-38.8z"/><path fill="#F5B724" d="M64 8.2c-18.7 0-33.7 15.2-33.7 33.8v10.7c0 8.9 3 17.4 8.4 24.4l2.7 3.5c4.2 5.4 6.5 12.1 6.5 18.9v3.7c0 3.4 2.8 6.1 6.1 6.1h20c3.4 0 6.1-2.8 6.1-6.1v-3.7c0-6.8 2.3-13.5 6.5-18.9l2.7-3.5c5.4-7 8.4-15.5 8.4-24.4V42c0-18.6-15-33.8-33.7-33.8z"/><ellipse fill="#fff" cx="53" cy="48" rx="8" ry="10"/><ellipse fill="#fff" cx="75" cy="48" rx="8" ry="10"/><ellipse fill="#333" cx="54" cy="49" rx="4" ry="5"/><ellipse fill="#333" cx="74" cy="49" rx="4" ry="5"/><path fill="#F5B724" d="M57 65c0 0 3 5 7 5s7-5 7-5"/><path fill="#333" d="M52 72c0 0 5 8 12 8s12-8 12-8v3c0 0-4 7-12 7s-12-7-12-7v-3z"/></svg>
