<svg xmlns="http://www.w3.org/2000/svg" viewBox="0 0 128 128"><path fill="#439934" d="M68.6 6.3C66 3.2 64.2.6 64.2.6l-.3-.6-.3.6S61.7 3.2 59.1 6.3c-32.9 37.4-26 64.1-26 64.1 4.5 24.9 27.3 34.7 29.7 35.6.2.1.4.2.6.2h.7c.2-.1.4-.1.6-.2 2.4-.9 25.2-10.7 29.7-35.6.2 0 7.1-26.7-25.8-64.1z"/><path fill="#45A538" d="M65.3 105.4s.4-1.5.6-3.1l.3-3.6-2.3-1.7V11.4l.7-.2 1.1 1.3c0 0 26.8 30.5 24.1 58.3-.4 3.5-3.4 15.2-15.1 25.5l-6.3 5.5-3.1 3.6z"/><path fill="#46A037" d="M62.6 105.4s-.4-1.5-.6-3.1l-.3-3.6 2.3-1.7V11.4l-.7-.2-1.1 1.3c0 0-26.8 30.5-24.1 58.3.4 3.5 3.4 15.2 15.1 25.5l6.3 5.5 3.1 3.6z"/></svg>
