<svg xmlns="http://www.w3.org/2000/svg" viewBox="0 0 128 128"><path fill="#00618A" d="M2.2 96.7h7.1V78.5l10.8 15.2c1.3 1.8 2.4 3 4.7 3s3.5-1.2 4.7-3L40.3 78.6v18.1h7.1V69.4c0-1.8-.1-2.3-1.6-2.3-1 0-2.5 1-3.4 2.3L31 86.6l-11.3-17.2c-.9-1.4-2.4-2.3-3.4-2.3s-1.6.5-1.6 2.3l-.5 27.3z"/><path fill="#00618A" d="M52.2 96.9c2.3 0 5.2-1.6 7.1-3.3v3.1h6.7V80.8c0-6.3-3.5-10.6-11.3-10.6-3.6 0-7.1 1-10 2.9l2.7 4.9c2.2-1.3 4.5-2.1 6.8-2.1 3.4 0 4.8 1.8 5 4.2-9.4.6-16.7 3-16.7 10.4 0 4.4 3.3 7.4 8.7 7.4h1zm1.1-5.5c-2.2 0-3.5-1-3.5-2.8 0-3.2 3.8-4.9 9.3-5.3v4.6c-1.7 1.9-3.7 3.5-5.8 3.5z"/><path fill="#E48E00" d="M71.2 96.7h7.1V68.8h-7.1v27.9zm51.7-27.9H117c-1.5 0-2.5 1-3.4 2.3l-7.3 12.2-7.3-12.2c-.9-1.4-1.9-2.3-3.4-2.3h-5.9l12.7 19.5v8.4h7.1v-8.4l12.4-19.5z"/><path fill="#00618A" d="M80 61.5c2.2 0 4-1.8 4-4s-1.8-4-4-4-4 1.8-4 4 1.8 4 4 4z"/></svg>
