<svg xmlns="http://www.w3.org/2000/svg" viewBox="0 0 128 128"><path fill="#6181B6" d="M64 33.1C28.7 33.1 0 48.9 0 68.5s28.7 35.4 64 35.4 64-15.8 64-35.4-28.7-35.4-64-35.4z"/><path fill="#fff" d="M34.8 55.3h9.4c6.3 0 8.8 3.2 8.2 7.4-.8 5.8-4.8 8.9-10.8 8.9h-4.1l-1.6 8.4h-6.5l5.4-24.7zm7.7 11.6c2.8 0 4.5-1.7 4.8-3.8.3-2.2-1-3.4-3.7-3.4h-3.4l-1.3 7.2h3.6zm19.9-11.6h9.4c6.3 0 8.8 3.2 8.2 7.4-.8 5.8-4.8 8.9-10.8 8.9h-4.1l-1.6 8.4h-6.5l5.4-24.7zm7.7 11.6c2.8 0 4.5-1.7 4.8-3.8.3-2.2-1-3.4-3.7-3.4h-3.4l-1.3 7.2h3.6zM95 55.3h6.5l-1.3 5.7h4c5.6 0 8.3 2.4 7.7 6.5l-1.4 8.4c-.1.5-.2 1.2-.5 2.1h-6.3l1.5-8.7c.2-1.5-.4-2.2-2.2-2.2h-3.4l-2.1 10.9h-6.5L95 55.3z"/></svg>
