<svg xmlns="http://www.w3.org/2000/svg" viewBox="0 0 128 128"><path fill="#336791" d="M93.809 92.112c.785-6.533.55-7.492 5.416-6.433l1.235.108c3.742.17 8.637-.602 11.513-1.938 6.191-2.873 9.861-7.668 3.758-6.409-13.924 2.873-14.881-1.842-14.881-1.842 14.703-21.815 20.849-49.508 15.543-56.287-14.47-18.489-39.478-9.749-39.478-9.749l-.134.024c-2.751-.571-5.83-.912-9.289-.968-6.301-.104-11.082 1.652-14.535 4.401 0 0-44.108-18.171-42.053 22.862.437 8.74 12.574 66.108 27.044 48.781 5.285-6.328 10.391-11.672 10.391-11.672 2.535 1.661 5.575 2.526 8.796 2.218l.248-.022c-.095.953-.052 1.882.082 2.958-3.384 3.794-2.391 4.457-9.163 5.854-6.848 1.414-2.828 3.928-.199 4.587 3.184.797 10.552 1.926 15.535-5.039l-.218.9c1.467 1.175 2.521 7.621 2.354 13.465-.167 5.844.398 11.161 1.342 14.073.944 2.912 1.986 10.251 10.454 8.146 7.066-1.757 12.763-4.032 13.356-26.312z"/><path fill="#fff" d="M62.1 12.24c3.065-.143 5.784.132 8.069.706-1.997 1.201-3.578 2.848-4.746 4.554-1.958 2.86-3.18 6.143-3.807 9.59-.59 3.237-.517 6.596.118 9.9.6 3.122 1.776 6.105 3.5 8.716.698 1.055 1.452 2.012 2.243 2.86-1.305.104-2.584.038-3.845-.226-2.635-.552-5.132-1.79-6.979-3.863-.584-.655-1.066-1.406-1.464-2.226-1.167-2.407-1.532-5.311-1.235-8.162.296-2.853 1.162-5.662 2.496-8.028 1.593-2.821 3.903-5.13 6.764-6.554 1.065-.531 2.166-.923 3.284-1.16-.596-.254-1.189-.57-1.773-.945a17.3 17.3 0 0 1-2.625-2.162z"/><path fill="#336791" d="M82.892 46.466c-.13-.312-.273-.62-.422-.922-1.377-2.78-3.418-5.211-5.643-7.273-3.531-3.271-7.523-5.175-11.559-5.636a15.21 15.21 0 0 0-3.372.005c-1.098.13-2.194.371-3.275.732-2.071.923-3.854 2.403-5.318 4.215-1.76 2.178-3.002 4.844-3.691 7.82-.882 3.809-.826 8.125.181 12.71.423 1.93 1.02 3.884 1.776 5.834l.138-.306c-2.07-8.15-.754-15.34 1.971-20.1 1.476-2.577 3.369-4.555 5.48-5.741a10.43 10.43 0 0 1 3.163-1.166c1.116-.215 2.264-.216 3.431-.004 2.396.436 4.878 1.72 7.222 3.86a25.15 25.15 0 0 1 4.8 5.965c.506.888.954 1.819 1.346 2.782.498 1.228.862 2.46.993 3.674.131 1.214.087 2.393-.198 3.501a8.45 8.45 0 0 1-1.247 2.664c-.576.795-1.296 1.512-2.164 2.145-1.633 1.191-3.67 2.067-5.995 2.682-1.242.329-2.573.576-3.982.73l.079.697c.065.61.111 1.238.139 1.882.025.588.032 1.19.018 1.799-.063 2.809-.427 5.654-1.121 8.224-.34 1.26-.744 2.426-1.214 3.46a14.46 14.46 0 0 1-.896 1.576c-.26.388-.535.722-.816.998a3.4 3.4 0 0 1-.667.494 1.15 1.15 0 0 1-.301.117.567.567 0 0 1-.3-.009 2.22 2.22 0 0 1-.501-.208c-.45-.25-1.112-.702-1.875-1.365a24.7 24.7 0 0 1-2.521-2.788 36.2 36.2 0 0 1-2.387-3.487 49.63 49.63 0 0 1-2.139-3.894 51.87 51.87 0 0 1-2.225-5.3 41.01 41.01 0 0 0-.627-1.542c-.87 1.78-1.555 3.68-2.033 5.683-.488 2.047-.763 4.23-.774 6.573l.004.397c-.042.06-.083.121-.125.18-1.48 2.153-3.126 4.162-4.905 5.662l-.114.095c-.122-.363-.238-.729-.35-1.098-2.51-8.279-4.327-18.19-3.886-26.762.254-4.929 1.372-9.32 3.67-12.648 2.034-2.944 4.947-5.086 9.084-5.791l.151-.026.137-.064c1.053-.489 2.16-.884 3.318-1.146a15.5 15.5 0 0 1 3.503-.338c3.72.035 7.584 1.378 10.884 4.256a24.6 24.6 0 0 1 5.102 6.17l.23.418z"/></svg>
