<svg xmlns="http://www.w3.org/2000/svg" viewBox="0 0 128 128"><path fill="#A41E11" d="M121.8 56.2c-5.6 2.9-34.5 14.8-40.7 18-6.1 3.2-9.5 3.2-14.3.7C61.9 72.4 28 59 23.3 56.8c-2.3-1.1-3.5-2-3.5-2.9V44.7s40.1-8.7 46.5-10.9c6.4-2.1 8.6-2.2 14 0s38.4 7.8 38.4 7.8v9.3c-.1.9-1.3 2.1-3.5 3.1l6.6 2.2z"/><path fill="#D82C20" d="M121.8 47c-5.6 2.9-34.5 14.8-40.7 18-6.1 3.2-9.5 3.2-14.3.7C61.9 63.2 28 49.7 23.3 47.6s-5.6-3.9 0-6.1c5.6-2.2 35.4-13.8 41.8-15.9s8.6-2.2 14 0 33.7 12.3 39.3 14.4c5.5 2.2 9 4.1 3.4 7z"/><path fill="#A41E11" d="M121.8 72.7c-5.6 2.9-34.5 14.8-40.7 18-6.1 3.2-9.5 3.2-14.3.7C61.9 88.9 28 75.4 23.3 73.3c-2.3-1.1-3.5-2-3.5-2.9V61.2s40.1-8.7 46.5-10.9c6.4-2.1 8.6-2.2 14 0s38.4 7.8 38.4 7.8v9.3c-.1.9-1.3 2.1-3.5 3.1l6.6 2.2z"/><path fill="#D82C20" d="M121.8 63.5c-5.6 2.9-34.5 14.8-40.7 18-6.1 3.2-9.5 3.2-14.3.7C61.9 79.7 28 66.2 23.3 64.1s-5.6-3.9 0-6.1c5.6-2.2 35.4-13.8 41.8-15.9s8.6-2.2 14 0 33.7 12.3 39.3 14.4c5.5 2.2 9 4.1 3.4 7z"/><path fill="#A41E11" d="M121.8 89.2c-5.6 2.9-34.5 14.8-40.7 18-6.1 3.2-9.5 3.2-14.3.7C61.9 105.4 28 91.9 23.3 89.8c-2.3-1.1-3.5-2-3.5-2.9V77.7s40.1-8.7 46.5-10.9c6.4-2.1 8.6-2.2 14 0s38.4 7.8 38.4 7.8v9.3c-.1.9-1.3 2.1-3.5 3.1l6.6 2.2z"/><path fill="#D82C20" d="M121.8 80c-5.6 2.9-34.5 14.8-40.7 18-6.1 3.2-9.5 3.2-14.3.7C61.9 96.2 28 82.7 23.3 80.6s-5.6-3.9 0-6.1c5.6-2.2 35.4-13.8 41.8-15.9s8.6-2.2 14 0 33.7 12.3 39.3 14.4c5.5 2.2 9 4 3.4 7z"/></svg>
