<svg xmlns="http://www.w3.org/2000/svg" viewBox="0 0 128 128"><path fill="#000" d="M62.1 10.1l-2.7 4.7c-.3.5-.8.8-1.4.9l-5.3.7 3.9 3.7c.4.4.6.9.5 1.5l-.9 5.3 4.7-2.5c.5-.3 1.1-.3 1.6 0l4.8 2.5-.9-5.3c-.1-.5.1-1.1.5-1.5l3.8-3.7-5.3-.8c-.5-.1-1-.4-1.3-.9L62.1 10.1z"/><path fill="#000" d="M64 4C30.9 4 4 30.9 4 64s26.9 60 60 60 60-26.9 60-60S97.1 4 64 4zm0 112c-28.7 0-52-23.3-52-52s23.3-52 52-52 52 23.3 52 52-23.3 52-52 52z"/><path fill="#000" d="M64 16c-26.5 0-48 21.5-48 48s21.5 48 48 48 48-21.5 48-48-21.5-48-48-48zm24.5 57.7H82c-.6 0-1.2-.3-1.5-.8l-4.8-7.3h-4.2v8.1h-6.8V46.3H77c7.7 0 12.5 3.5 12.5 10.3 0 4.8-2.4 8-6.4 9.6l5.8 7.6c.7.8.1 2-.4 2v-.1zM77 52H71.5v11.3H77c3.8 0 6-1.9 6-5.7S80.8 52 77 52z"/></svg>
