<svg xmlns="http://www.w3.org/2000/svg" viewBox="0 0 128 128"><path fill="#CD6799" d="M64 2C30.9 2 4 28.9 4 62s26.9 60 60 60 60-26.9 60-60S97.1 2 64 2zm33.5 56.8c-.3 0-.5 0-.8.1-.3 0-.5.1-.8.1-2.1.4-3.9 1.2-5.5 2.2 1.6-6.6-.3-12.4-2.8-16.2 3.5-3.8 3.8-7.2 3.3-9-.8-3.1-4.2-4.3-7.3-3.3-2.8.9-5.3 3.5-6.7 6.3-1.4-1.4-3-2.6-4.8-3.6-6-3.2-12.9-3.3-18.6-.2-2.2 1.2-4 2.9-5.4 4.8-5.8-3.8-10.8-3.4-13.1-1.3-3 2.8-2.2 8.3 1.6 13 .2.3.5.6.8.9-.7 1.8-1.1 3.8-1.1 5.8 0 7 4.7 13 11.4 16.1-.4 1.3-.6 2.7-.6 4.1 0 5.8 3.4 10.8 8.3 13.6 3.1 1.8 6.6 2.4 10.1 1.8 3.2-.5 6.2-2 8.5-4.2 4.5 2.7 9.8 3.5 14.8 2.2 7.3-1.9 12.1-7.9 12.1-15.1 0-1.6-.2-3.2-.7-4.8 4.5-3.9 7.5-9 7.5-14.8 0-1.3-.1-2.5-.4-3.7-1.3-5.1-5.3-8.9-10.2-10.2l.4.2z"/></svg>
