<svg xmlns="http://www.w3.org/2000/svg" viewBox="0 0 128 128"><path fill="#F05138" d="M126.3 39.1c0-.2 0-.4-.1-.6-1.6-7.2-5.3-14.1-11.4-19.7C108.5 13 100.3 10 92.2 10h-.3C86 4.4 79.1 1.3 71.7 1.3c-7.5 0-14.3 3.1-20.2 8.6H51c-7.9 0-16.2 3.1-22.5 8.8-6.6 5.9-10.6 13.6-11.6 21.5-7 6.9-11.3 16.1-11.3 26.3 0 .3 0 .5.1.8-.2 1.3-.2 2.7-.2 4 0 12.6 5.3 24 14.2 31.9 1.2 6.5 4.5 12.7 10 17.6 6.3 5.6 14.5 8.6 22.5 8.6h.5c5.6 5.3 12.3 8.2 19.5 8.5h1c7.5 0 14.3-3.1 20.2-8.6h.5c7.9 0 16.2-3.1 22.5-8.8 6.3-5.6 10.1-12.8 11.4-20.5 7.5-7 12.1-16.7 12.1-27.3 0-.2 0-.5-.1-.7.1-1 .2-2 .2-3.1.2-11.9-4.5-22.8-12.8-30.8l-1.4-1.2z"/><path fill="#fff" d="M92.3 83.2c-.3.5-.6 1-1 1.5-3.2 4.4-8.2 7.4-14.8 8.2-1.3.2-2.7.2-4.1.1-1.4-.1-2.8-.3-4.3-.7-4.3-1.2-8.9-4-12.6-7.3 0 0-.1 0-.1-.1 8.6 3.6 18.5 3.8 25.4-2.8-6.5 1.2-14-2-19.1-6.6-1-1-1.9-2-2.7-3.1l-.4-.5c-.3-.4-.5-.7-.7-1.1-.1-.2-.3-.4-.4-.6 0-.1-.1-.1-.1-.2 3.8 2.7 14.6 8.3 25.5 3.4-6.2-.5-12.8-4.8-16.9-10-1.3-1.6-2.3-3.3-3-4.9 3.1 2.6 11.4 7.7 22 7.7-9-6.3-15.3-15.2-18.8-21.5-2-3.5-3.3-6.4-3.8-7.9 0 0 0-.1-.1-.1 2.2 2.8 4.8 5.4 7.6 7.7 8.3 6.8 18.8 12.3 26.4 11.5-7-6.9-12-15.7-14.7-22-.9-2.2-1.6-4.2-2-5.8 7.4 10.2 21 24.7 37.7 30.2 1 .3 2 .6 3.1.8-.5-3.4-1.7-6.7-3.6-9.9-3.9-6.5-10.1-12.2-18.1-16.5-6.6-3.6-13.8-5.9-20.7-7.2 6.1.1 12.8 1.5 19.4 4.8 8.1 4 14.6 9.7 19 16.4 1.8 2.7 3.1 5.5 4 8.3.6-.2 1.1-.5 1.6-.8.7-.4 1.3-.8 1.9-1.2 4.8-3.6 7.7-8.7 8.6-14.2.2-1.3.3-2.5.3-3.8 0-1-.1-2-.2-3.1-.8-5.8-3.4-11.2-7.8-15.7-1.5-1.5-3.2-2.9-5-4.1l-.5-.3c-3.5-2.2-7.3-3.6-11.3-4.3l-2-.3h-.1c-1.3-.1-2.7-.2-4.1-.2-2.5 0-5 .3-7.3.9-2.3-4.5-6-8.4-10.7-11-2.6-1.4-5.5-2.3-8.5-2.6-1-.1-2-.1-3-.1-5 .2-9.7 1.8-13.5 4.6C56.4 12 50.3 8.4 43.1 9.3c-3.8.5-7.3 2.1-10.2 4.6-2.3 2-4 4.4-5.2 7.1-1.2-.1-2.5-.2-3.7-.2-6.3 0-12.2 2.1-17 5.9-5.7 4.5-9 10.8-9.5 17.7-.2 2.3 0 4.6.4 6.9-.8 2.2-1.4 4.6-1.6 7-.7 6.5 1.2 12.8 5.5 17.7 3.3 3.7 7.6 6.2 12.4 7.2-.2 1.2-.3 2.5-.3 3.8.1 5.4 2 10.5 5.4 14.8 4.1 5.2 10 8.5 16.6 9.3 2 .2 3.9.2 5.8 0 2.2 3.8 5.4 7.1 9.4 9.4 2.8 1.6 5.9 2.6 9.1 3h.2c1 .1 2 .1 2.9.1 5.4-.3 10.4-2.2 14.4-5.5 3.9 1.8 8.2 2.6 12.8 2.2 6.6-.6 12.4-3.4 16.6-7.8 3.7-3.9 5.9-8.6 6.5-13.7.3-2.3.2-4.6-.2-6.9 5.7-5.5 9.2-12.7 9.5-20.5.2-2.3 0-4.6-.5-7 0-.2-.1-.3-.1-.5l-.1-.1c-1.4-5.2-4.5-10-9-13.8z"/></svg>
