<svg xmlns="http://www.w3.org/2000/svg" viewBox="0 0 128 128"><path fill="#007acc" d="M2 63.91v62.5h125v-125H2zm100.73-5.01v11.01H78.91v52.38H66.04V69.91H42.23V58.9h60.5z"/><path fill="#007acc" d="M95.512 69.91l.5 5.5-1 1c-1.5 1.5-3.5 2.5-6 3s-5.5.5-9-.5l-5-2v-11l3.5 2c3 2 5.5 3 7.5 3s3.5-.5 4.5-1.5c.5-.5.5-1 .5-1.5s-.5-1.5-1.5-2-3-1.5-6-2.5c-3.5-1.5-6-3-7.5-5s-2.5-4.5-2.5-7.5c0-4 1.5-7 4-9.5 2.5-2 6-3.5 10-3.5 5.5 0 9.5 1.5 12 4.5l-6 7c-1.5-2-4-3-7-3-1.5 0-3 .5-4 1s-1.5 1.5-1.5 2.5.5 2 1.5 2.5c1 .5 3 1.5 6 2.5 3.5 1.5 6 3 8 5s3 4.5 3 7.5c0 4-1.5 7.5-4.5 10-3 2.5-6.5 3.5-11 3.5-6 0-10.5-2-13.5-6l6.5-7c2 3 5 4.5 8.5 4.5 2 0 3.5-.5 4.5-1 1-.5 1.5-1.5 1.5-2.5z"/></svg>
